<svg width="18" height="18" viewBox="0 0 18 18" fill="none" xmlns="http://www.w3.org/2000/svg">
<path d="M7.75002 10.6667H14V9.00008H9.41669L7.75002 10.6667ZM4.00002 10.6667H6.04169L10.9584 5.79175C11.0417 5.70841 11.0834 5.60425 11.0834 5.47925C11.0834 5.35425 11.0417 5.25008 10.9584 5.16675L9.50002 3.70841C9.41669 3.62508 9.31252 3.58341 9.18752 3.58341C9.06252 3.58341 8.95835 3.62508 8.87502 3.70841L4.00002 8.62508V10.6667ZM0.666687 17.3334V2.33341C0.666687 1.87508 0.83002 1.48258 1.15669 1.15591C1.4828 0.829803 1.87502 0.666748 2.33335 0.666748H15.6667C16.125 0.666748 16.5175 0.829803 16.8442 1.15591C17.1703 1.48258 17.3334 1.87508 17.3334 2.33341V12.3334C17.3334 12.7917 17.1703 13.1842 16.8442 13.5109C16.5175 13.837 16.125 14.0001 15.6667 14.0001H4.00002L0.666687 17.3334Z" fill="white"/>
</svg>
