<svg width="18" height="14" viewBox="0 0 18 14" fill="none" xmlns="http://www.w3.org/2000/svg">
<path d="M0.25 2.9375C0.25 1.73 1.23 0.75 2.4375 0.75H15.5625C16.77 0.75 17.75 1.73 17.75 2.9375V11.0625C17.75 11.6427 17.5195 12.1991 17.1093 12.6093C16.6991 13.0195 16.1427 13.25 15.5625 13.25H2.4375C1.85734 13.25 1.30094 13.0195 0.890704 12.6093C0.480468 12.1991 0.25 11.6427 0.25 11.0625V2.9375ZM5.57625 6.6425C5.79901 6.6425 6.01958 6.59863 6.22538 6.51338C6.43118 6.42814 6.61817 6.30319 6.77568 6.14568C6.93319 5.98817 7.05814 5.80118 7.14338 5.59538C7.22863 5.38958 7.2725 5.169 7.2725 4.94625C7.2725 4.7235 7.22863 4.50292 7.14338 4.29712C7.05814 4.09132 6.93319 3.90433 6.77568 3.74682C6.61817 3.58931 6.43118 3.46436 6.22538 3.37912C6.01958 3.29387 5.79901 3.25 5.57625 3.25C5.12638 3.25 4.69493 3.42871 4.37682 3.74682C4.05871 4.06493 3.88 4.49638 3.88 4.94625C3.88 5.39612 4.05871 5.82757 4.37682 6.14568C4.69493 6.46379 5.12638 6.6425 5.57625 6.6425ZM3.8225 7.49C3.53806 7.49 3.26526 7.60299 3.06413 7.80413C2.863 8.00526 2.75 8.27806 2.75 8.5625C2.75004 9.02802 2.90568 9.48017 3.19219 9.84708C3.4787 10.214 3.87963 10.4746 4.33125 10.5875L4.3975 10.605C5.1725 10.7987 5.98125 10.7987 6.755 10.605L6.8225 10.5888C7.27412 10.4759 7.67505 10.2152 7.96156 9.84833C8.24807 9.48142 8.40371 9.02927 8.40375 8.56375C8.40391 8.4228 8.37629 8.2832 8.32247 8.15294C8.26865 8.02267 8.18967 7.90429 8.09006 7.80457C7.99046 7.70485 7.87217 7.62574 7.74197 7.57176C7.61176 7.51778 7.4722 7.49 7.33125 7.49H3.8225ZM10.875 4.5C10.7092 4.5 10.5503 4.56585 10.4331 4.68306C10.3158 4.80027 10.25 4.95924 10.25 5.125C10.25 5.29076 10.3158 5.44973 10.4331 5.56694C10.5503 5.68415 10.7092 5.75 10.875 5.75H14.625C14.7908 5.75 14.9497 5.68415 15.0669 5.56694C15.1842 5.44973 15.25 5.29076 15.25 5.125C15.25 4.95924 15.1842 4.80027 15.0669 4.68306C14.9497 4.56585 14.7908 4.5 14.625 4.5H10.875ZM10.875 8.25C10.7092 8.25 10.5503 8.31585 10.4331 8.43306C10.3158 8.55027 10.25 8.70924 10.25 8.875C10.25 9.04076 10.3158 9.19973 10.4331 9.31694C10.5503 9.43415 10.7092 9.5 10.875 9.5H14.625C14.7908 9.5 14.9497 9.43415 15.0669 9.31694C15.1842 9.19973 15.25 9.04076 15.25 8.875C15.25 8.70924 15.1842 8.55027 15.0669 8.43306C14.9497 8.31585 14.7908 8.25 14.625 8.25H10.875Z" fill="white"/>
</svg>
