<svg width="16" height="18" viewBox="0 0 16 18" fill="none" xmlns="http://www.w3.org/2000/svg">
<path d="M4.66667 10.6666C4.43056 10.6666 4.2325 10.5866 4.0725 10.4266C3.91306 10.2672 3.83333 10.0694 3.83333 9.83329C3.83333 9.59718 3.91306 9.39912 4.0725 9.23912C4.2325 9.07968 4.43056 8.99996 4.66667 8.99996C4.90278 8.99996 5.10083 9.07968 5.26083 9.23912C5.42028 9.39912 5.5 9.59718 5.5 9.83329C5.5 10.0694 5.42028 10.2672 5.26083 10.4266C5.10083 10.5866 4.90278 10.6666 4.66667 10.6666ZM8 10.6666C7.76389 10.6666 7.56611 10.5866 7.40667 10.4266C7.24667 10.2672 7.16667 10.0694 7.16667 9.83329C7.16667 9.59718 7.24667 9.39912 7.40667 9.23912C7.56611 9.07968 7.76389 8.99996 8 8.99996C8.23611 8.99996 8.43417 9.07968 8.59417 9.23912C8.75361 9.39912 8.83333 9.59718 8.83333 9.83329C8.83333 10.0694 8.75361 10.2672 8.59417 10.4266C8.43417 10.5866 8.23611 10.6666 8 10.6666ZM11.3333 10.6666C11.0972 10.6666 10.8994 10.5866 10.74 10.4266C10.58 10.2672 10.5 10.0694 10.5 9.83329C10.5 9.59718 10.58 9.39912 10.74 9.23912C10.8994 9.07968 11.0972 8.99996 11.3333 8.99996C11.5694 8.99996 11.7672 9.07968 11.9267 9.23912C12.0867 9.39912 12.1667 9.59718 12.1667 9.83329C12.1667 10.0694 12.0867 10.2672 11.9267 10.4266C11.7672 10.5866 11.5694 10.6666 11.3333 10.6666ZM2.16667 17.3333C1.70833 17.3333 1.31583 17.1702 0.989167 16.8441C0.663055 16.5175 0.5 16.125 0.5 15.6666V3.99996C0.5 3.54163 0.663055 3.1494 0.989167 2.82329C1.31583 2.49663 1.70833 2.33329 2.16667 2.33329H3V0.666626H4.66667V2.33329H11.3333V0.666626H13V2.33329H13.8333C14.2917 2.33329 14.6842 2.49663 15.0108 2.82329C15.3369 3.1494 15.5 3.54163 15.5 3.99996V15.6666C15.5 16.125 15.3369 16.5175 15.0108 16.8441C14.6842 17.1702 14.2917 17.3333 13.8333 17.3333H2.16667ZM2.16667 15.6666H13.8333V7.33329H2.16667V15.6666Z" fill="#6487A5"/>
</svg>
