<svg width="18" height="14" viewBox="0 0 18 14" fill="none" xmlns="http://www.w3.org/2000/svg">
<path d="M2.33333 13.6667C1.875 13.6667 1.48278 13.5037 1.15666 13.1775C0.829997 12.8509 0.666664 12.4584 0.666664 12V2.00004C0.666664 1.54171 0.829997 1.14948 1.15666 0.823374C1.48278 0.496707 1.875 0.333374 2.33333 0.333374H15.6667C16.125 0.333374 16.5175 0.496707 16.8442 0.823374C17.1703 1.14948 17.3333 1.54171 17.3333 2.00004V12C17.3333 12.4584 17.1703 12.8509 16.8442 13.1775C16.5175 13.5037 16.125 13.6667 15.6667 13.6667H2.33333ZM9 7.83337L15.6667 3.66671V2.00004L9 6.16671L2.33333 2.00004V3.66671L9 7.83337Z" fill="#6487A5"/>
</svg>
