<svg width="16" height="13" viewBox="0 0 16 13" fill="none" xmlns="http://www.w3.org/2000/svg">
<path d="M1.33348 1.51329L2.18681 0.666626L13.3335 11.8133L12.4868 12.6666L10.4335 10.6133C9.66681 10.8666 8.85348 11 8.00014 11C4.66681 11 1.82014 8.92663 0.666809 5.99996C1.12681 4.82663 1.86014 3.79329 2.79348 2.97329L1.33348 1.51329ZM8.00014 3.99996C8.53058 3.99996 9.03928 4.21067 9.41436 4.58575C9.78943 4.96082 10.0001 5.46953 10.0001 5.99996C10.0005 6.227 9.96215 6.45245 9.88681 6.66663L7.33348 4.11329C7.54765 4.03795 7.7731 3.99962 8.00014 3.99996ZM8.00014 0.999959C11.3335 0.999959 14.1801 3.07329 15.3335 5.99996C14.7894 7.3821 13.8648 8.58177 12.6668 9.45996L11.7201 8.50663C12.6421 7.86888 13.3856 7.006 13.8801 5.99996C13.3412 4.89992 12.5044 3.97314 11.465 3.32496C10.4255 2.67679 9.22512 2.33321 8.00014 2.33329C7.27348 2.33329 6.56014 2.45329 5.89348 2.66663L4.86681 1.64663C5.82681 1.23329 6.88681 0.999959 8.00014 0.999959ZM2.12014 5.99996C2.6591 7.1 3.49586 8.02678 4.5353 8.67496C5.57474 9.32313 6.77517 9.66671 8.00014 9.66663C8.46014 9.66663 8.91348 9.61996 9.33348 9.52663L7.81348 7.99996C7.34958 7.95024 6.91669 7.74321 6.58679 7.41331C6.25689 7.08341 6.04987 6.65052 6.00014 6.18663L3.73348 3.91329C3.07348 4.47996 2.52014 5.18663 2.12014 5.99996Z" fill="#6487A5"/>
</svg>
