<svg width="15" height="15" viewBox="0 0 15 15" fill="none" xmlns="http://www.w3.org/2000/svg">
<path d="M7.50002 14.5834C6.53196 14.5834 5.61703 14.3974 4.75523 14.0252C3.89342 13.6536 3.14094 13.146 2.49777 12.5023C1.85413 11.8592 1.34649 11.1067 0.974854 10.2449C0.602743 9.38307 0.416687 8.46814 0.416687 7.50008C0.416687 6.52022 0.602743 5.60246 0.974854 4.74679C1.34649 3.89065 1.85413 3.141 2.49777 2.49783C3.14094 1.85419 3.89342 1.34632 4.75523 0.974206C5.61703 0.602567 6.53196 0.416748 7.50002 0.416748C8.47988 0.416748 9.39764 0.602567 10.2533 0.974206C11.1095 1.34632 11.8591 1.85419 12.5023 2.49783C13.1459 3.141 13.6535 3.89065 14.0252 4.74679C14.3973 5.60246 14.5834 6.52022 14.5834 7.50008C14.5834 8.46814 14.3973 9.38307 14.0252 10.2449C13.6535 11.1067 13.1459 11.8592 12.5023 12.5023C11.8591 13.146 11.1095 13.6536 10.2533 14.0252C9.39764 14.3974 8.47988 14.5834 7.50002 14.5834ZM7.50002 13.1313C7.80696 12.7063 8.07259 12.2636 8.2969 11.8032C8.5212 11.3428 8.70419 10.8529 8.84585 10.3334H6.15419C6.29585 10.8529 6.47884 11.3428 6.70315 11.8032C6.92745 12.2636 7.19308 12.7063 7.50002 13.1313ZM5.65835 12.848C5.44585 12.4584 5.26003 12.054 5.10089 11.6346C4.94128 11.2158 4.80835 10.782 4.7021 10.3334H2.61252C2.95488 10.9237 3.38271 11.4372 3.89602 11.874C4.4098 12.3108 4.99724 12.6355 5.65835 12.848ZM9.34169 12.848C10.0028 12.6355 10.59 12.3108 11.1033 11.874C11.6171 11.4372 12.0452 10.9237 12.3875 10.3334H10.2979C10.1917 10.782 10.059 11.2158 9.89985 11.6346C9.74024 12.054 9.55419 12.4584 9.34169 12.848ZM2.01044 8.91675H4.41877C4.38335 8.68064 4.35667 8.44736 4.33873 8.21691C4.32126 7.98694 4.31252 7.748 4.31252 7.50008C4.31252 7.25216 4.32126 7.01322 4.33873 6.78325C4.35667 6.5528 4.38335 6.31953 4.41877 6.08341H2.01044C1.95141 6.31953 1.90702 6.5528 1.87727 6.78325C1.84799 7.01322 1.83335 7.25216 1.83335 7.50008C1.83335 7.748 1.84799 7.98694 1.87727 8.21691C1.90702 8.44736 1.95141 8.68064 2.01044 8.91675ZM5.83544 8.91675H9.1646C9.20002 8.68064 9.2267 8.44736 9.24465 8.21691C9.26212 7.98694 9.27085 7.748 9.27085 7.50008C9.27085 7.25216 9.26212 7.01322 9.24465 6.78325C9.2267 6.5528 9.20002 6.31953 9.1646 6.08341H5.83544C5.80002 6.31953 5.77358 6.5528 5.7561 6.78325C5.73816 7.01322 5.72919 7.25216 5.72919 7.50008C5.72919 7.748 5.73816 7.98694 5.7561 8.21691C5.77358 8.44736 5.80002 8.68064 5.83544 8.91675ZM10.5813 8.91675H12.9896C13.0486 8.68064 13.093 8.44736 13.1228 8.21691C13.152 7.98694 13.1667 7.748 13.1667 7.50008C13.1667 7.25216 13.152 7.01322 13.1228 6.78325C13.093 6.5528 13.0486 6.31953 12.9896 6.08341H10.5813C10.6167 6.31953 10.6431 6.5528 10.6606 6.78325C10.6785 7.01322 10.6875 7.25216 10.6875 7.50008C10.6875 7.748 10.6785 7.98694 10.6606 8.21691C10.6431 8.44736 10.6167 8.68064 10.5813 8.91675ZM10.2979 4.66675H12.3875C12.0452 4.07647 11.6171 3.56293 11.1033 3.12612C10.59 2.68932 10.0028 2.36466 9.34169 2.15216C9.55419 2.54175 9.74024 2.94597 9.89985 3.36483C10.059 3.78416 10.1917 4.21814 10.2979 4.66675ZM6.15419 4.66675H8.84585C8.70419 4.1473 8.5212 3.65737 8.2969 3.19696C8.07259 2.73654 7.80696 2.29383 7.50002 1.86883C7.19308 2.29383 6.92745 2.73654 6.70315 3.19696C6.47884 3.65737 6.29585 4.1473 6.15419 4.66675ZM2.61252 4.66675H4.7021C4.80835 4.21814 4.94128 3.78416 5.10089 3.36483C5.26003 2.94597 5.44585 2.54175 5.65835 2.15216C4.99724 2.36466 4.4098 2.68932 3.89602 3.12612C3.38271 3.56293 2.95488 4.07647 2.61252 4.66675Z" fill="white"/>
</svg>
