<svg width="14" height="19" viewBox="0 0 14 19" fill="none" xmlns="http://www.w3.org/2000/svg">
<path d="M6.99999 14.1667C7.44202 14.1667 7.86594 13.9911 8.1785 13.6786C8.49106 13.366 8.66666 12.9421 8.66666 12.5C8.66666 12.058 8.49106 11.6341 8.1785 11.3215C7.86594 11.009 7.44202 10.8334 6.99999 10.8334C6.55796 10.8334 6.13404 11.009 5.82148 11.3215C5.50892 11.6341 5.33333 12.058 5.33333 12.5C5.33333 12.9421 5.50892 13.366 5.82148 13.6786C6.13404 13.9911 6.55796 14.1667 6.99999 14.1667ZM12 6.66671C12.442 6.66671 12.8659 6.8423 13.1785 7.15486C13.4911 7.46742 13.6667 7.89135 13.6667 8.33337V16.6667C13.6667 17.1087 13.4911 17.5327 13.1785 17.8452C12.8659 18.1578 12.442 18.3334 12 18.3334H1.99999C1.55797 18.3334 1.13404 18.1578 0.821483 17.8452C0.508923 17.5327 0.333328 17.1087 0.333328 16.6667V8.33337C0.333328 7.89135 0.508923 7.46742 0.821483 7.15486C1.13404 6.8423 1.55797 6.66671 1.99999 6.66671H2.83333V5.00004C2.83333 3.89497 3.27231 2.83516 4.05372 2.05376C4.83512 1.27236 5.89492 0.833374 6.99999 0.833374C7.54717 0.833374 8.08898 0.941148 8.59451 1.15054C9.10003 1.35994 9.55936 1.66685 9.94627 2.05376C10.3332 2.44067 10.6401 2.9 10.8495 3.40553C11.0589 3.91105 11.1667 4.45287 11.1667 5.00004V6.66671H12ZM6.99999 2.50004C6.33695 2.50004 5.70107 2.76343 5.23223 3.23227C4.76338 3.70111 4.49999 4.337 4.49999 5.00004V6.66671H9.49999V5.00004C9.49999 4.337 9.2366 3.70111 8.76776 3.23227C8.29892 2.76343 7.66303 2.50004 6.99999 2.50004Z" fill="#7696B0"/>
</svg>
