<svg width="18" height="20" viewBox="0 0 18 20" fill="none" xmlns="http://www.w3.org/2000/svg">
<path d="M11.7408 12.2308C11.6184 12.1908 10.8454 11.8423 11.3284 10.3738H11.3215C12.5808 9.07692 13.5431 6.99 13.5431 4.93538C13.5431 1.77615 11.4423 0.119995 9.00076 0.119995C6.55768 0.119995 4.46845 1.77538 4.46845 4.93538C4.46845 6.99846 5.42537 9.09384 6.69229 10.3877C7.18614 11.6831 6.30306 12.1638 6.11845 12.2315C3.56152 13.1561 0.561523 14.8415 0.561523 16.5054V17.1292C0.561523 19.3961 4.95691 19.9115 9.0246 19.9115C13.0984 19.9115 17.4384 19.3961 17.4384 17.1292V16.5054C17.4384 14.7915 14.4238 13.1192 11.7408 12.2308Z" fill="#6487A5"/>
</svg>
