<svg width="23" height="20" viewBox="0 0 23 20" fill="none" xmlns="http://www.w3.org/2000/svg">
<path d="M4.50342 0.428467C3.7646 0.428467 3.05605 0.721961 2.53362 1.24438C2.0112 1.76681 1.71771 2.47536 1.71771 3.21418V8.83275C2.75382 7.83801 4.13509 7.28348 5.57142 7.28561C6.62294 7.28389 7.65328 7.58116 8.54228 8.14275H17.3571C17.5276 8.14275 17.6911 8.21048 17.8117 8.33104C17.9323 8.4516 18 8.61511 18 8.78561C18 8.95611 17.9323 9.11962 17.8117 9.24018C17.6911 9.36074 17.5276 9.42847 17.3571 9.42847H9.96342C10.4576 10.0599 10.8091 10.791 10.9937 11.5713H15.6429C15.8133 11.5713 15.9769 11.6391 16.0974 11.7596C16.218 11.8802 16.2857 12.0437 16.2857 12.2142C16.2857 12.3847 16.218 12.5482 16.0974 12.6687C15.9769 12.7893 15.8133 12.857 15.6429 12.857H11.1429C11.1444 13.815 10.8979 14.757 10.4271 15.5913L12.4071 17.5713H19.5009C20.2397 17.5713 20.9482 17.2778 21.4706 16.7554C21.9931 16.233 22.2866 15.5244 22.2866 14.7856V3.21418C22.2866 2.47536 21.9931 1.76681 21.4706 1.24438C20.9482 0.721961 20.2397 0.428467 19.5009 0.428467H4.50342ZM5.99999 5.35704C5.99999 5.18654 6.06772 5.02303 6.18828 4.90247C6.30884 4.78191 6.47235 4.71418 6.64285 4.71418H13.0714C13.2419 4.71418 13.4054 4.78191 13.526 4.90247C13.6466 5.02303 13.7143 5.18654 13.7143 5.35704C13.7143 5.52753 13.6466 5.69105 13.526 5.81161C13.4054 5.93217 13.2419 5.9999 13.0714 5.9999H6.64285C6.47235 5.9999 6.30884 5.93217 6.18828 5.81161C6.06772 5.69105 5.99999 5.52753 5.99999 5.35704ZM9.32828 15.7053C10.05 14.7534 10.3834 13.563 10.2611 12.3747C10.1389 11.1864 9.57004 10.0888 8.66963 9.30381C7.76923 8.51879 6.60438 8.10486 5.4105 8.14567C4.21663 8.18649 3.08277 8.67901 2.23808 9.5237C1.3934 10.3684 0.900873 11.5022 0.860055 12.6961C0.819238 13.89 1.23317 15.0548 2.01819 15.9553C2.80322 16.8557 3.90079 17.4245 5.08909 17.5467C6.27739 17.669 7.46779 17.3356 8.41971 16.6139L10.9029 19.097C10.9617 19.1602 11.0327 19.2109 11.1115 19.246C11.1904 19.2811 11.2755 19.3 11.3618 19.3015C11.4481 19.3031 11.5339 19.2872 11.6139 19.2549C11.694 19.2225 11.7667 19.1744 11.8277 19.1134C11.8888 19.0523 11.9369 18.9796 11.9692 18.8995C12.0016 18.8195 12.0175 18.7338 12.0159 18.6474C12.0144 18.5611 11.9955 18.476 11.9604 18.3971C11.9252 18.3183 11.8746 18.2473 11.8114 18.1885L9.32828 15.7053ZM8.99999 12.857C8.99999 13.7664 8.63877 14.6384 7.99579 15.2814C7.35281 15.9244 6.48073 16.2856 5.57142 16.2856C4.66211 16.2856 3.79004 15.9244 3.14705 15.2814C2.50407 14.6384 2.14285 13.7664 2.14285 12.857C2.14285 11.9477 2.50407 11.0757 3.14705 10.4327C3.79004 9.78969 4.66211 9.42847 5.57142 9.42847C6.48073 9.42847 7.35281 9.78969 7.99579 10.4327C8.63877 11.0757 8.99999 11.9477 8.99999 12.857Z" fill="#6487A5" fill-opacity="0.5"/>
</svg>
