<svg width="15" height="18" viewBox="0 0 15 18" fill="none" xmlns="http://www.w3.org/2000/svg">
<path d="M8 17.3334L7.79167 14.8334H7.58333C5.61111 14.8334 3.9375 14.1459 2.5625 12.7709C1.1875 11.3959 0.5 9.7223 0.5 7.75008C0.5 5.77786 1.1875 4.10425 2.5625 2.72925C3.9375 1.35425 5.61111 0.666748 7.58333 0.666748C8.56944 0.666748 9.48944 0.850637 10.3433 1.21841C11.1978 1.58675 11.9481 2.09369 12.5942 2.73925C13.2397 3.38536 13.7464 4.13536 14.1142 4.98925C14.4825 5.84369 14.6667 6.76397 14.6667 7.75008C14.6667 9.86119 14.0347 11.7534 12.7708 13.4267C11.5069 15.1006 9.91667 16.4029 8 17.3334ZM7.5625 12.3126C7.79861 12.3126 8 12.2292 8.16667 12.0626C8.33333 11.8959 8.41667 11.6945 8.41667 11.4584C8.41667 11.2223 8.33333 11.0209 8.16667 10.8542C8 10.6876 7.79861 10.6042 7.5625 10.6042C7.32639 10.6042 7.125 10.6876 6.95833 10.8542C6.79167 11.0209 6.70833 11.2223 6.70833 11.4584C6.70833 11.6945 6.79167 11.8959 6.95833 12.0626C7.125 12.2292 7.32639 12.3126 7.5625 12.3126ZM7.58333 9.66675C7.73611 9.66675 7.875 9.61119 8 9.50008C8.125 9.38897 8.20833 9.23619 8.25 9.04175C8.27778 8.86119 8.35417 8.69786 8.47917 8.55175C8.60417 8.40619 8.81945 8.18064 9.125 7.87508C9.375 7.62508 9.58333 7.35425 9.75 7.06258C9.91667 6.77092 10 6.45842 10 6.12508C10 5.41675 9.76056 4.88536 9.28167 4.53092C8.80222 4.17703 8.23611 4.00008 7.58333 4.00008C7.09722 4.00008 6.67722 4.11119 6.32333 4.33342C5.96889 4.55564 5.68056 4.83342 5.45833 5.16675C5.36111 5.31953 5.34361 5.47925 5.40583 5.64592C5.46861 5.81258 5.59722 5.93064 5.79167 6.00008C5.93056 6.05564 6.06945 6.05564 6.20833 6.00008C6.34722 5.94453 6.47222 5.84036 6.58333 5.68758C6.69445 5.5348 6.83 5.4098 6.99 5.31258C7.14945 5.21536 7.34722 5.16675 7.58333 5.16675C7.95833 5.16675 8.23972 5.27092 8.4275 5.47925C8.61472 5.68758 8.70833 5.91675 8.70833 6.16675C8.70833 6.40286 8.63889 6.61453 8.5 6.80175C8.36111 6.98953 8.19444 7.18064 8 7.37508C7.61111 7.70842 7.35056 7.97925 7.21833 8.18758C7.08667 8.39591 7.00694 8.68064 6.97917 9.04175C6.96528 9.20842 7.0175 9.35425 7.13583 9.47925C7.25361 9.60425 7.40278 9.66675 7.58333 9.66675Z" fill="white"/>
</svg>
